<?xml version="1.0" encoding="UTF-8"?>
<!DOCTYPE svg PUBLIC "-//W3C//DTD SVG 1.1//EN" "http://www.w3.org/Graphics/SVG/1.1/DTD/svg11.dtd">
<!-- Creator: CorelDRAW X7 -->
<svg xmlns="http://www.w3.org/2000/svg" xml:space="preserve" width="5.963in" height="2.235in" version="1.1" style="shape-rendering:geometricPrecision; text-rendering:geometricPrecision; image-rendering:optimizeQuality; fill-rule:evenodd; clip-rule:evenodd"
viewBox="0 0 6128 2297"
 xmlns:xlink="http://www.w3.org/1999/xlink">
 <defs>
  <style type="text/css">
   <![CDATA[
    .fil0 {fill:#0069d9}
   ]]>
  </style>
 </defs>
 <g id="Layer_x0020_1">
  <metadata id="CorelCorpID_0Corel-Layer"/>
  <path id="_247399424" class="fil0" d="M1148 0c634,0 1149,514 1149,1149 0,634 -515,1148 -1149,1148 -634,0 -1148,-514 -1148,-1148 0,-635 514,-1149 1148,-1149zm0 125c397,0 718,451 718,1006 0,555 -321,1005 -718,1005 -397,0 -717,-450 -717,-1005 0,-555 320,-1006 717,-1006z"/>
  <path id="_246881848" class="fil0" d="M546 724l122 0c96,122 274,203 480,203 206,0 384,-81 481,-203l122 0 0 812 -122 0c-97,-121 -275,-202 -481,-202 -206,0 -384,81 -480,202l-122 0 0 -812zm112 382l0 69c0,8 2,14 4,19 3,5 6,8 10,8 3,0 7,-3 14,-8 1,-1 2,-1 4,-1 2,0 4,2 5,5 2,4 3,9 3,14 0,8 -3,16 -9,23 -13,17 -27,25 -46,25 -13,0 -24,-6 -33,-18 -8,-13 -12,-28 -12,-49l0 -93c0,-3 -1,-5 -1,-6 -1,-2 -2,-2 -4,-2l-13 0c-2,0 -4,0 -5,-2 0,-1 -2,-4 -2,-9l0 -8c2,-4 3,-7 4,-9l60 -59c1,-1 3,-2 5,-2l11 0c2,0 4,1 4,3 1,1 1,4 1,9l0 27c0,4 1,7 2,8 0,1 2,2 5,2l24 0c3,0 5,1 6,3 1,2 2,6 2,12l0 12c0,6 -1,10 -2,13 -1,3 -3,4 -7,4l-23 0c-3,0 -4,1 -5,2 -1,2 -2,4 -2,8zm120 -118l-2 85c0,9 2,14 6,14 2,0 4,-2 6,-6 9,-19 20,-29 34,-29 14,0 25,7 33,20 4,6 6,13 8,20 1,9 2,20 2,35l1 73c0,7 1,12 2,15 1,3 4,6 8,11 2,3 3,6 3,11 0,15 -15,22 -42,22 -26,0 -38,-7 -38,-21 0,-2 0,-4 1,-5 0,-1 2,-5 4,-10 4,-7 5,-26 5,-55 0,-19 -1,-31 -3,-40 -3,-11 -8,-17 -16,-17 -5,0 -9,3 -11,9 -2,4 -3,13 -3,25l0 39c1,17 1,27 2,29 0,3 2,7 6,13 1,3 2,6 2,10 0,15 -12,23 -38,23 -30,0 -45,-8 -45,-24 0,-4 0,-7 1,-8 1,-2 4,-5 7,-9 3,-4 6,-13 7,-30 1,-16 2,-42 2,-80 0,-29 -1,-49 -2,-61 0,-4 -1,-7 -2,-9 -1,-1 -2,-3 -5,-5 -5,-5 -8,-9 -8,-16 0,-7 2,-12 6,-16 4,-4 12,-9 24,-13 16,-8 29,-11 38,-11 5,0 7,3 7,11zm229 175l-61 0c-3,0 -5,2 -5,7 0,8 4,16 10,24 6,8 13,12 20,12 4,0 8,-1 14,-4 5,-3 9,-6 12,-9 3,-4 5,-5 7,-5 2,0 4,2 7,6 2,4 3,9 3,14 0,10 -4,19 -12,28 -13,16 -30,24 -47,24 -19,0 -34,-8 -46,-25 -7,-8 -12,-17 -15,-29 -5,-15 -8,-31 -8,-49 0,-22 4,-43 13,-60 9,-17 18,-28 30,-35 8,-7 19,-10 29,-10 16,0 30,8 42,22 5,7 10,16 13,27 4,11 7,22 7,33 0,9 -2,16 -4,21 -2,6 -5,8 -9,8zm-57 -38l12 0c6,0 9,-4 9,-11 0,-7 -2,-13 -4,-18 -3,-5 -6,-7 -11,-7 -4,0 -8,2 -11,9 -3,6 -5,11 -5,17 0,4 1,6 2,8 1,2 5,2 8,2zm154 -19l0 69c0,8 1,14 4,19 2,5 6,8 10,8 3,0 7,-3 14,-8 1,-1 2,-1 3,-1 2,0 4,2 6,5 2,4 3,9 3,14 0,8 -3,16 -9,23 -13,17 -28,25 -46,25 -13,0 -24,-6 -32,-18 -10,-13 -14,-28 -14,-49l0 -93c0,-3 0,-5 0,-6 -1,-2 -2,-2 -4,-2l-13 0c-3,0 -4,0 -5,-2 0,-1 -1,-4 -1,-9l0 -8c0,-4 1,-7 3,-9l59 -59c2,-1 3,-2 6,-2l11 0c2,0 3,1 4,3 1,1 1,4 1,9l0 27c0,4 1,7 1,8 1,1 3,2 6,2l24 0c3,0 5,1 6,3 1,2 2,6 2,12l0 12c0,6 -1,10 -2,13 -1,3 -4,4 -7,4l-24 0c-2,0 -4,1 -4,2 -1,2 -2,4 -2,8zm122 -54c16,0 28,7 38,18 6,6 10,14 12,21 3,9 4,20 4,34l0 31c0,21 1,35 3,41 0,2 1,4 2,5 1,1 3,3 6,3 2,1 4,4 4,9 0,6 -2,13 -5,19 -4,7 -8,14 -14,19 -6,5 -13,8 -20,8 -9,0 -17,-4 -22,-14 -2,-3 -3,-6 -5,-6 -2,0 -4,3 -7,6 -8,9 -19,14 -29,14 -11,0 -20,-3 -28,-11 -5,-5 -8,-12 -11,-20 -3,-8 -4,-16 -4,-24 0,-15 4,-27 11,-39 12,-17 28,-25 52,-25 4,0 8,-1 9,-2 1,-2 2,-5 2,-12 0,-14 -1,-24 -3,-30 -2,-7 -5,-11 -9,-11 -3,0 -5,2 -7,4 -3,2 -5,8 -8,14 -8,17 -16,25 -24,25 -4,0 -9,-2 -11,-6 -3,-3 -4,-8 -4,-15 0,-6 1,-12 5,-20 3,-6 8,-11 14,-16 15,-13 32,-20 49,-20zm-9 118c-3,0 -6,3 -9,7 -3,5 -5,11 -5,17 0,7 2,13 4,17 2,4 4,6 7,6 7,0 10,-9 10,-28 0,-7 0,-12 -1,-15 -1,-2 -3,-4 -6,-4zm121 -6c8,0 16,5 22,14 6,9 9,20 9,35 0,13 -3,24 -9,34 -6,9 -14,13 -22,13 -8,0 -15,-4 -21,-13 -7,-10 -10,-21 -10,-34 0,-15 3,-26 10,-35 6,-9 13,-14 21,-14zm182 -48l-34 103c-5,15 -10,27 -13,33 -4,6 -8,9 -13,9 -4,0 -7,-3 -9,-7 -6,-9 -10,-20 -14,-32l-37 -109c-2,-6 -4,-10 -6,-13 -1,-2 -4,-4 -8,-5 -7,-4 -10,-10 -10,-18 0,-8 4,-14 12,-17 9,-5 22,-7 40,-7 14,0 25,2 32,6 7,3 11,8 11,15 0,5 -2,9 -5,14 -2,3 -4,6 -5,7 -1,2 -1,3 -1,6 0,4 2,12 7,22 3,11 7,16 10,16 2,0 4,-1 5,-4 2,-2 4,-9 8,-20 2,-8 4,-13 4,-17 0,-3 -2,-8 -4,-13 -3,-4 -5,-9 -5,-13 0,-6 3,-11 8,-13 6,-4 16,-6 28,-6 18,0 27,7 27,19 0,7 -3,11 -10,14 -5,3 -9,5 -10,9 -2,3 -5,10 -8,21zm189 11l2 72c0,6 0,10 1,12 1,3 4,8 8,15 1,2 3,5 3,9 0,9 -4,15 -11,19 -7,3 -19,5 -37,5 -12,0 -20,-2 -25,-5 -6,-3 -8,-9 -8,-17 0,-3 0,-4 1,-6 0,-1 2,-4 6,-9 3,-5 5,-25 5,-57 0,-18 -2,-32 -4,-42 -4,-7 -8,-10 -14,-10 -5,0 -9,3 -11,8 -2,6 -3,17 -3,32l0 40c0,8 0,14 1,17 0,3 2,9 6,17 1,3 1,5 1,8 0,9 -3,15 -10,19 -7,3 -19,5 -34,5 -24,0 -36,-8 -36,-24 0,-3 0,-5 1,-7 1,-2 3,-4 5,-7 3,-2 4,-5 5,-9 0,-3 1,-12 1,-24 1,-15 1,-32 1,-49 0,-10 0,-16 -1,-18 -1,-3 -4,-7 -8,-11 -4,-3 -5,-8 -5,-13 0,-6 1,-10 4,-14 3,-3 9,-7 18,-13 9,-4 17,-8 25,-11 7,-4 12,-6 16,-6 3,0 5,2 7,6 1,3 2,6 2,10 0,0 0,2 0,5 0,1 0,2 0,3 0,6 2,9 5,9 2,0 4,-2 7,-7 7,-17 18,-26 32,-26 11,0 21,6 29,14 5,6 9,14 11,22 2,9 3,22 4,38z"/>
  <path class="fil0" d="M2684 1082l0 343c0,42 5,74 13,100 8,26 19,39 32,39 11,0 25,-12 44,-37 4,-6 8,-9 12,-9 6,0 13,10 19,30 5,19 8,41 8,65 0,41 -9,82 -29,120 -40,82 -88,123 -145,123 -45,0 -81,-31 -109,-91 -26,-62 -40,-143 -40,-244l0 -470c0,-15 -1,-25 -3,-28 -1,-5 -5,-7 -11,-7l-44 0c-9,0 -14,-3 -16,-9 -2,-6 -3,-21 -3,-45l0 -45c0,-21 3,-35 9,-44l194 -293c5,-7 11,-10 18,-10l34 0c7,0 11,3 14,12 2,8 3,23 3,46l0 138c0,20 2,33 5,40 3,5 8,8 17,8l78 0c10,0 17,5 20,14 3,10 5,29 5,59l0 60c0,32 -2,55 -6,67 -4,13 -12,19 -22,19l-76 0c-8,0 -13,4 -16,10 -3,7 -5,20 -5,39z"/>
  <path id="_1" class="fil0" d="M3072 490l-6 426c0,51 6,77 19,77 7,0 14,-11 21,-34 27,-96 64,-144 109,-144 44,0 80,33 107,99 11,29 19,63 24,103 5,41 9,98 9,173l4 367c0,32 2,56 5,70 3,15 11,34 22,56 9,16 13,34 13,56 0,74 -46,110 -138,110 -81,0 -122,-34 -122,-103 0,-11 1,-20 2,-27 1,-5 6,-21 14,-48 13,-38 19,-130 19,-279 0,-91 -4,-157 -12,-198 -9,-56 -25,-84 -49,-84 -17,0 -30,14 -38,44 -6,22 -9,63 -9,122l0 197c2,87 4,135 5,147 2,12 8,33 19,64 6,15 9,31 9,50 0,77 -41,115 -125,115 -96,0 -145,-40 -145,-119 0,-18 1,-32 6,-42 2,-10 10,-25 22,-46 10,-18 18,-67 22,-148 4,-80 6,-213 6,-398 0,-146 -1,-248 -5,-304 -1,-21 -3,-37 -6,-47 -3,-9 -9,-19 -17,-30 -17,-21 -26,-46 -26,-75 0,-34 7,-61 20,-82 13,-22 38,-44 76,-68 50,-34 90,-51 121,-51 17,0 24,17 24,51z"/>
  <path id="_2" class="fil0" d="M3814 1373l-198 0c-10,0 -14,9 -14,28 0,44 10,85 30,124 20,39 41,59 64,59 13,0 29,-6 45,-19 16,-13 30,-29 40,-47 10,-15 18,-24 24,-24 7,0 14,11 20,32 7,22 12,44 12,68 0,48 -14,96 -38,141 -46,81 -97,121 -156,121 -58,0 -109,-41 -149,-124 -18,-40 -35,-90 -47,-147 -16,-77 -25,-157 -25,-243 0,-114 14,-216 43,-307 24,-78 56,-138 94,-176 29,-29 61,-44 94,-44 53,0 98,37 136,110 19,37 34,80 46,130 13,57 19,114 19,167 0,44 -3,80 -11,109 -7,28 -18,42 -29,42zm-188 -190l43 0c18,0 27,-21 27,-61 0,-36 -4,-65 -14,-89 -8,-23 -19,-35 -33,-35 -16,0 -28,15 -37,45 -9,28 -13,56 -13,84 0,21 1,35 6,44 3,8 11,12 21,12z"/>
  <path id="_3" class="fil0" d="M4127 1082l0 343c0,42 5,74 13,100 8,26 18,39 32,39 11,0 25,-12 43,-37 4,-6 8,-9 13,-9 6,0 12,10 19,30 5,19 8,41 8,65 0,41 -10,82 -29,120 -40,82 -88,123 -145,123 -45,0 -81,-31 -109,-91 -26,-62 -41,-143 -41,-244l0 -470c0,-15 -1,-25 -2,-28 -2,-5 -5,-7 -12,-7l-43 0c-9,0 -14,-3 -16,-9 -2,-6 -4,-21 -4,-45l0 -45c1,-21 4,-35 10,-44l194 -293c5,-7 10,-10 17,-10l35 0c6,0 11,3 13,12 3,8 4,23 4,46l0 138c0,20 1,33 5,40 2,5 8,8 16,8l78 0c10,0 18,5 21,14 3,10 5,29 5,59l0 60c0,32 -2,55 -6,67 -4,13 -12,19 -22,19l-77 0c-7,0 -12,4 -15,10 -4,7 -5,20 -5,39z"/>
  <path id="_4" class="fil0" d="M4522 814c49,0 91,30 124,90 19,32 31,68 38,109 8,41 11,98 11,170l0 151c0,106 3,174 9,205 3,15 6,24 8,28 3,4 9,8 19,12 8,3 13,17 13,42 0,33 -6,67 -16,102 -12,35 -25,65 -42,88 -22,31 -44,45 -66,45 -30,0 -54,-25 -71,-73 -5,-17 -11,-27 -17,-27 -5,0 -12,9 -21,26 -29,49 -61,74 -97,74 -37,0 -67,-18 -89,-56 -15,-26 -27,-59 -35,-99 -9,-40 -14,-82 -14,-126 0,-71 13,-133 36,-188 36,-86 92,-128 166,-129 15,0 26,-4 31,-11 4,-9 6,-27 6,-55 0,-72 -3,-124 -9,-156 -7,-33 -17,-48 -31,-48 -8,0 -17,6 -23,18 -6,11 -14,34 -24,67 -25,86 -52,128 -79,128 -14,0 -25,-9 -33,-28 -10,-20 -14,-47 -14,-77 0,-33 5,-66 17,-99 10,-32 25,-61 44,-85 50,-65 104,-98 159,-98zm-28 589c-12,0 -23,12 -33,37 -9,25 -13,53 -13,87 0,33 3,60 9,79 8,20 16,30 26,30 23,0 34,-45 34,-137 0,-38 -1,-62 -5,-76 -3,-12 -9,-19 -18,-20z"/>
  <path id="_5" class="fil0" d="M4885 1376c27,0 50,23 70,67 19,45 30,104 30,176 0,68 -11,124 -30,170 -20,45 -43,67 -70,67 -27,0 -49,-22 -70,-67 -20,-46 -30,-103 -30,-172 0,-71 10,-129 30,-174 21,-44 43,-67 70,-67z"/>
  <path id="_6" class="fil0" d="M5472 1134l-109 512c-18,80 -32,135 -43,166 -13,31 -25,46 -38,46 -14,0 -24,-11 -32,-35 -18,-45 -33,-97 -45,-156l-121 -549c-6,-30 -12,-51 -18,-65 -6,-12 -15,-22 -26,-29 -22,-15 -32,-42 -32,-84 0,-41 14,-72 40,-90 26,-19 68,-29 126,-29 47,0 82,8 105,25 23,17 34,43 34,77 0,25 -6,48 -16,71 -7,14 -11,26 -13,33 -2,8 -3,17 -3,28 0,23 6,62 18,116 12,52 25,78 35,78 7,0 13,-6 17,-20 5,-12 13,-45 25,-100 8,-39 14,-68 14,-89 0,-16 -6,-35 -15,-57 -9,-25 -14,-48 -14,-69 0,-32 9,-56 26,-70 19,-15 48,-22 89,-22 57,0 86,30 86,90 0,35 -10,59 -31,76 -16,11 -26,24 -33,39 -5,14 -14,50 -26,107z"/>
  <path id="_7" class="fil0" d="M6084 1191l6 358c1,27 2,47 6,59 3,14 11,38 25,75 5,11 7,26 7,46 0,45 -11,76 -33,93 -22,19 -62,27 -120,27 -38,0 -65,-8 -82,-25 -16,-16 -25,-44 -25,-82 0,-13 1,-24 4,-30 1,-6 7,-21 16,-47 11,-29 16,-123 16,-285 0,-93 -4,-163 -13,-207 -7,-36 -20,-55 -40,-55 -20,0 -32,16 -39,44 -7,29 -10,83 -10,159l0 201c0,40 1,68 3,82 2,16 9,45 20,88 3,12 5,25 5,41 0,40 -12,70 -35,88 -22,20 -58,29 -107,29 -79,0 -118,-39 -118,-117 0,-16 1,-29 3,-37 4,-8 9,-21 18,-36 7,-13 11,-28 13,-44 2,-17 4,-58 6,-123 3,-77 4,-158 4,-243 0,-48 -2,-77 -6,-92 -3,-15 -11,-33 -24,-54 -13,-18 -19,-40 -19,-67 0,-27 5,-49 15,-67 10,-17 29,-39 60,-65 28,-23 54,-43 78,-59 26,-16 43,-24 52,-24 9,0 15,8 21,23 7,15 9,33 9,52 0,2 0,12 0,26 0,5 0,10 0,14 0,33 5,50 16,50 7,0 14,-14 22,-39 24,-85 59,-127 105,-127 35,0 66,23 91,68 18,32 31,69 38,112 6,43 11,107 12,190z"/>
 </g>
</svg>
